# xmcd CD database file generated by Grip 3.1.1
# 
# Track frame offsets:
#       150
#       11207
#       25862
#       40130
#       51925
#       62845
#       76185
#       86567
#       98465
#       109817
#       123810
#       135947
#       151270
#       165102
#       176770
#       186557
#       196297
#       215420
#       217262
#       220307
#       221947
#       223690
#       224962
#       226280
#       228312
#       229270
#       229815
#       230395
#       230975
#       231517
#       231957
#       233870
#       235225
#       237395
#       239292
#       241257
#       242962
#       243675
#       245445
#       246484
#       247420
#       248355
#       249102
#       250037
#       250410
#       251065
#       251720
#       252382
#       253120
#       253797
#       254362
#       254895
#       255484
#       256177
#       256927
#       257422
#       257982
#       258545
#       259477
#       260040
#       260695
#       261347
#       262002
#       262657
#       263310
#       264060
#       264712
#       265555
#       266490
#       267142
#       267985
#       268732
#       269480
#       270227
#       271070
#       271722
#       272470
#       273592
#       274340
#       275275
#       276022
#       276865
#       277612
#       278640
#       279762
#       280602
#       281445
#       282472
#       283220
#       284062
#       284997
#       285745
#       292195
#       298422
#       305810
#       310770
#       313832
#       318012
#       329345
# 
# Disc length: 4442 seconds
# 
# Revision: 1
# Processed by: cddbd v1.4PL0 Copyright (c) Steve Scherf et al.
# Submitted via: Grip 3.1.1
# 
DISCID=31115863
DTITLE=El√§kel√§iset - Werbung, Baby!
DYEAR=1900
DGENRE=Humour
TTITLE0=Hump‰kel‰iset - Hump
TTITLE1=Humppakonehumppa
TTITLE2=Humppamedia
TTITLE3=Punakka humppa
TTITLE4=Pelj√§tty humppa
TTITLE5=Humpan alla
TTITLE6=Humppaa, saatanat!
TTITLE7=Kuusessa hevon
TTITLE8=Lierohumppa
TTITLE9=Paratiisihumppa
TTITLE10=Humppatarzan
TTITLE11=Poltettu humppa
TTITLE12=Humppauhraus
TTITLE13=Humppakummitus
TTITLE14=Humppabarbi
TTITLE15=Tervetuloa meht√§√§n‰‰n
TTITLE16=Hotelli Helpotus
TTITLE17=18 - Empty
TTITLE18=19 - Empty
TTITLE19=20 - Empty
TTITLE20=21 - Empty
TTITLE21=22 - Empty
TTITLE22=23 - Empty
TTITLE23=24 - Empty
TTITLE24=25 - Empty
TTITLE25=26 - Empty
TTITLE26=27 - Empty
TTITLE27=28 - Empty
TTITLE28=29 - Empty
TTITLE29=30 - Empty
TTITLE30=31 - Empty
TTITLE31=32 - Empty
TTITLE32=33 - Empty
TTITLE33=34 - Empty
TTITLE34=35 - Empty
TTITLE35=36 - Empty
TTITLE36=37 - Empty
TTITLE37=38 - Empty
TTITLE38=39 - Empty
TTITLE39=40 - Empty
TTITLE40=41 - Empty
TTITLE41=42 - Empty
TTITLE42=43 - Empty
TTITLE43=44 - Empty
TTITLE44=45 - Empty
TTITLE45=46 - Empty
TTITLE46=47 - Empty
TTITLE47=48 - Empty
TTITLE48=49 - Empty
TTITLE49=50 - Empty
TTITLE50=51 - Empty
TTITLE51=52 - Empty
TTITLE52=53 - Empty
TTITLE53=54 - Empty
TTITLE54=55 - Empty
TTITLE55=56 - Empty
TTITLE56=57 - Empty
TTITLE57=58 - Empty
TTITLE58=59 - Empty
TTITLE59=60 - Empty
TTITLE60=61 - Empty
TTITLE61=62 - Empty
TTITLE62=63 - Empty
TTITLE63=64 - Empty
TTITLE64=65 - Empty
TTITLE65=66 - Empty
TTITLE66=67 - Empty
TTITLE67=68 - Empty
TTITLE68=69 - Empty
TTITLE69=70 - Empty
TTITLE70=71 - Empty
TTITLE71=72 - Empty
TTITLE72=73 - Empty
TTITLE73=74 - Empty
TTITLE74=75 - Empty
TTITLE75=76 - Empty
TTITLE76=77 - Empty
TTITLE77=78 - Empty
TTITLE78=79 - Empty
TTITLE79=80 - Empty
TTITLE80=81 - Empty
TTITLE81=82 - Empty
TTITLE82=83 - Empty
TTITLE83=84 - Empty
TTITLE84=85 - Empty
TTITLE85=86 - Empty
TTITLE86=87 - Empty
TTITLE87=88 - Empty
TTITLE88=89 - Empty
TTITLE89=90 - Empty
TTITLE90=91 - Empty
TTITLE91=92 - Empty
TTITLE92=93 - Empty
TTITLE93=94 - Empty
TTITLE94=95 - Empty
TTITLE95=96 - Empty
TTITLE96=97 - Empty
TTITLE97=98 - Empty
TTITLE98=99 - Empty
EXTD=
EXTT0=
EXTT1=
EXTT2=
EXTT3=
EXTT4=
EXTT5=
EXTT6=
EXTT7=
EXTT8=
EXTT9=
EXTT10=
EXTT11=
EXTT12=
EXTT13=
EXTT14=
EXTT15=
EXTT16=
EXTT17=
EXTT18=
EXTT19=
EXTT20=
EXTT21=
EXTT22=
EXTT23=
EXTT24=
EXTT25=
EXTT26=
EXTT27=
EXTT28=
EXTT29=
EXTT30=
EXTT31=
EXTT32=
EXTT33=
EXTT34=
EXTT35=
EXTT36=
EXTT37=
EXTT38=
EXTT39=
EXTT40=
EXTT41=
EXTT42=
EXTT43=
EXTT44=
EXTT45=
EXTT46=
EXTT47=
EXTT48=
EXTT49=
EXTT50=
EXTT51=
EXTT52=
EXTT53=
EXTT54=
EXTT55=
EXTT56=
EXTT57=
EXTT58=
EXTT59=
EXTT60=
EXTT61=
EXTT62=
EXTT63=
EXTT64=
EXTT65=
EXTT66=
EXTT67=
EXTT68=
EXTT69=
EXTT70=
EXTT71=
EXTT72=
EXTT73=
EXTT74=
EXTT75=
EXTT76=
EXTT77=
EXTT78=
EXTT79=
EXTT80=
EXTT81=
EXTT82=
EXTT83=
EXTT84=
EXTT85=
EXTT86=
EXTT87=
EXTT88=
EXTT89=
EXTT90=
EXTT91=
EXTT92=
EXTT93=
EXTT94=
EXTT95=
EXTT96=
EXTT97=
EXTT98=
PLAYORDER=
